#!OML:ASF H:\Terrain\Patient Classification 1\Animal1\Tuesday\Animal1.ASF
:FULLY-SPECIFIED
:DEGREES
2436
root 7.68009 16.2113 -3.78518 6.99415 -46.6165 -1.97437
lowerback -1.49437 -0.025068 -0.288072
upperback -10.2578 -0.0592694 2.46344
thorax -10.0229 0.0417675 2.80911
lowerneck -2.30328 10.4382 2.59626
upperneck 14.7246 12.2262 12.6766
head 4.14383 6.8325 3.937
rclavicle 3.51849e-014 -3.29983e-014
rhumerus -42.6751 -29.7901 36.3284
rradius 25.1282
rwrist -47.2268
rhand -46.6763 -348.368
rfingers 7.12502
rthumb -19.396 -17.4208
lclavicle 3.51849e-014 -3.29983e-014
lhumerus -64.7221 59.8769 -66.2326
lradius 23.6649
lwrist -24.7742
lhand -4.35197 71.9585
lfingers 7.12502
lthumb 21.4159 979.205
rfemur -31.0901 25.55 8.28804
rtibia 23.333
rfoot -17.1192 -26.6325
rtoes 9.85723
lfemur -4.35764 -7.9506 -26.6155
ltibia 27.0831
lfoot -17.8296 23.1953
ltoes -10.762
2437
root 7.66061 16.2092 -3.78722 7.09082 -46.7574 -2.27492
lowerback -1.53334 -0.0766329 -0.118936
upperback -10.1808 -0.117699 2.52875
thorax -9.90897 0.000422086 2.78584
lowerneck -2.42074 10.5533 2.87852
upperneck 15.0634 12.3123 12.7125
head 4.28173 6.90639 3.93435
rclavicle -3.37934e-015 -7.95139e-016
rhumerus -41.541 -28.6019 33.8807
rradius 25.272
rwrist -48.7522
rhand -46.7681 -347.77
rfingers 7.12502
rthumb -19.4844 -16.8142
lclavicle -3.37934e-015 -7.95139e-016
lhumerus -65.0709 60.1489 -66.3098
lradius 23.6032
lwrist -23.4688
lhand -4.44454 71.6679
lfingers 7.12502
lthumb 21.327 979.486
rfemur -30.8296 25.5392 8.68863
rtibia 23.1685
rfoot -17.2707 -26.2163
rtoes 8.94087
lfemur -4.09581 -7.90167 -26.4046
ltibia 27.0183
lfoot -17.7744 23.5136
ltoes -12.4166
2438
root 7.64132 16.2045 -3.78282 6.93178 -46.9531 -2.18034
lowerback -1.72325 -0.0339351 -0.159153
upperback -10.1228 -0.0674381 2.49339
thorax -9.73251 0.024715 2.7632
lowerneck -2.41414 10.6052 2.93997
upperneck 15.3413 12.3123 12.9887
head 4.35185 6.93458 4.02097
rclavicle 1.11319e-014 -7.15625e-015
rhumerus -40.6505 -28.055 32.0172
rradius 25.3638
rwrist -49.1154
rhand -46.5305 -347.508
rfingers 7.12502
rthumb -19.2559 -16.5746
lclavicle 1.11319e-014 -7.15625e-015
lhumerus -63.3145 60.0529 -63.5937
lradius 23.6316
lwrist -21.5888
lhand -4.67311 71.4096
lfingers 7.12502
lthumb 21.1075 979.719
rfemur -30.6607 25.4707 8.76553
rtibia 23.0946
rfoot -17.0807 -26.1099
rtoes 9.348
lfemur -3.85549 -8.05131 -26.5365
ltibia 26.9735
lfoot -17.9386 23.7888
ltoes -11.6729
2439
root 7.62418 16.2017 -3.77785 6.78527 -47.1458 -2.05385
lowerback -1.94311 0.0733702 -0.224457
upperback -10.1519 0.0687937 2.4796
thorax -9.64209 0.0948032 2.77469
lowerneck -2.27917 10.5811 2.69799
upperneck 15.6588 12.2167 13.4306
head 4.3832 6.90775 4.19092
rclavicle -5.02925e-014 1.19271e-014
rhumerus -39.8115 -28.2661 30.741
rradius 25.3111
rwrist -48.2399
rhand -45.8961 -347.573
rfingers 7.12502
rthumb -18.6458 -16.6992
lclavicle -5.02925e-014 1.19271e-014
lhumerus -59.9907 59.4904 -58.8313
lradius 23.7092
lwrist -19.4439
lhand -4.39383 70.9128
lfingers 7.12502
lthumb 21.3757 980.246
rfemur -30.5835 25.2984 8.83231
rtibia 23.1171
rfoot -16.6486 -26.0132
rtoes 8.94473
lfemur -3.66191 -8.08983 -26.6731
ltibia 26.8665
lfoot -17.8101 23.9547
ltoes -9.68408
2440
root 7.60547 16.1997 -3.77223 6.56041 -47.343 -2.09922
lowerback -2.00049 0.165095 -0.149335
upperback -10.106 0.193772 2.47298
thorax -9.56201 0.148924 2.71607
lowerneck -2.27009 10.5795 2.52843
upperneck 16.0638 12.1364 13.8024
head 4.47244 6.89581 4.34388
rclavicle -9.95911e-014 -2.90226e-014
rhumerus -38.9964 -29.2441 29.5462
rradius 25.1989
rwrist -46.5953
rhand -45.3148 -347.013
rfingers 7.12502
rthumb -18.0866 -16.1919
lclavicle -9.95911e-014 -2.90226e-014
lhumerus -57.7487 59.532 -55.3884
lradius 23.7866
lwrist -18.6489
lhand -3.66495 69.9209
lfingers 7.12502
lthumb 22.0757 981.319
rfemur -30.2432 25.124 9.16253
rtibia 23.1289
rfoot -16.4321 -25.5563
rtoes 7.532
lfemur -3.25379 -7.90923 -26.6839
ltibia 26.7655
lfoot -17.6521 24.0568
ltoes -9.17052
2441
root 7.58628 16.2018 -3.76741 6.32051 -47.5519 -2.0914
lowerback -2.18918 0.215191 -0.0575154
upperback -9.99631 0.257982 2.41834
thorax -9.3281 0.168205 2.5986
lowerneck -2.32003 10.6341 2.58093
upperneck 16.4165 12.1317 14.0385
head 4.5777 6.92515 4.42869
rclavicle 1.12512e-013 2.8625e-014
rhumerus -37.8292 -29.3404 27.4063
rradius 25.1994
rwrist -46.2461
rhand -44.8307 -345.788
rfingers 7.12502
rthumb -17.6208 -15.0091
lclavicle 1.12512e-013 2.8625e-014
lhumerus -55.917 59.9125 -52.4647
lradius 23.9036
lwrist -18.4353
lhand -3.37219 69.0061
lfingers 7.12502
lthumb 22.3567 982.268
rfemur -29.9259 25.0537 9.39526
rtibia 23.0751
rfoot -16.3264 -25.1489
rtoes 7.18998
lfemur -2.90693 -7.80659 -26.7355
ltibia 26.7512
lfoot -17.7165 24.1002
ltoes -8.56098
2442
root 7.57065 16.2083 -3.7716 6.46193 -47.6541 -2.21879
lowerback -2.55488 0.214754 0.0931447
upperback -10.0195 0.251441 2.39936
thorax -9.13616 0.148413 2.49271
lowerneck -2.21872 10.6799 2.73241
upperneck 16.7299 12.1327 14.17
head 4.65982 6.95061 4.45688
rclavicle -8.15017e-015 -3.57812e-015
rhumerus -35.9359 -26.728 23.729
rradius 25.5887
rwrist -49.1797
rhand -44.6349 -345.051
rfingers 7.12502
rthumb -17.4323 -14.2895
lclavicle -8.15017e-015 -3.57812e-015
lhumerus -52.2791 59.2597 -47.4836
lradius 24.0695
lwrist -16.9708
lhand -3.09957 68.7105
lfingers 7.12502
lthumb 22.6184 982.595
rfemur -29.949 24.9956 9.55599
rtibia 22.9772
rfoot -16.1285 -25.1704
rtoes 8.2592
lfemur -2.95161 -7.82673 -26.6054
ltibia 26.78
lfoot -17.546 24.2246
ltoes -9.48219
2443
root 7.55447 16.2074 -3.77849 6.66954 -47.7628 -2.43584
lowerback -2.88127 0.241058 0.219306
upperback -10.0413 0.28425 2.44707
thorax -8.96947 0.153846 2.4699
lowerneck -2.40637 10.7167 2.76251
upperneck 17.3853 12.0617 14.399
head 4.8857 6.9636 4.56792
rclavicle -4.57205e-015 -8.74653e-015
rhumerus -34.2527 -24.9565 20.6563
rradius 26.0795
rwrist -51.7154
rhand -44.4787 -344.742
rfingers 7.12502
rthumb -17.2819 -13.9938
lclavicle -4.57205e-015 -8.74653e-015
lhumerus -47.9309 57.8769 -41.5566
lradius 24.2679
lwrist -14.7856
lhand -2.3755 68.3438
lfingers 7.12502
lthumb 23.3132 983.048
rfemur -29.974 24.7355 9.86124
rtibia 22.9099
rfoot -15.8301 -25.0144
rtoes 8.14662
lfemur -2.98127 -7.81103 -26.3889
ltibia 26.7782
lfoot -17.3685 24.3553
ltoes -11.3299
2444
root 7.53695 16.2053 -3.78107 6.75989 -47.855 -2.65935
lowerback -3.18423 0.2793 0.378119
upperback -9.97394 0.334656 2.49371
thorax -8.71783 0.166024 2.42543
lowerneck -2.81251 10.7692 2.76322
upperneck 18.2043 11.9709 14.6903
head 5.19615 6.98349 4.72708
rclavicle 1.25234e-014 3.06128e-014
rhumerus -33.1183 -27.3495 19.3867
rradius 26.0565
rwrist -49.9177
rhand -43.7912 -344.809
rfingers 7.12502
rthumb -16.6202 -14.1175
lclavicle 1.25234e-014 3.06128e-014
lhumerus -44.4081 56.9412 -36.5461
lradius 24.5232
lwrist -13.2327
lhand -1.3195 67.4348
lfingers 7.12502
lthumb 24.3259 984.089
rfemur -29.8689 24.4176 10.2624
rtibia 22.9474
rfoot -15.6496 -24.482
rtoes 6.32532
lfemur -2.79472 -7.7177 -26.1767
ltibia 26.6957
lfoot -17.6113 24.2186
ltoes -10.732
2445
root 7.52161 16.2102 -3.78133 6.55022 -47.8839 -2.52743
lowerback -3.45363 0.265726 0.400304
upperback -9.96413 0.304677 2.41107
thorax -8.54653 0.143852 2.32521
lowerneck -2.85808 10.8116 3.02838
upperneck 18.7924 11.9148 14.7885
head 5.4061 7.00374 4.75546
rclavicle -8.28932e-014 -1.23246e-014
rhumerus -31.5962 -27.8241 17.161
rradius 26.2698
rwrist -50.0021
rhand -43.6645 -345.02
rfingers 7.12502
rthumb -16.4982 -14.3381
lclavicle -8.28932e-014 -1.23246e-014
lhumerus -41.2274 56.4739 -32.2229
lradius 24.6835
lwrist -12.3792
lhand -0.374321 66.3565
lfingers 7.12502
lthumb 25.2318 985.292
rfemur -29.8021 24.23 10.3473
rtibia 23.1626
rfoot -15.7643 -23.8909
rtoes 6.11138
lfemur -2.48186 -7.57863 -26.2334
ltibia 26.4368
lfoot -17.8455 23.9381
ltoes -10.6047
2446
root 7.50356 16.2107 -3.78033 5.842 -48.0141 -1.96684
lowerback -3.533 0.225813 0.101068
upperback -9.96849 0.236278 2.27961
thorax -8.50283 0.127058 2.35575
lowerneck -2.60155 10.8943 3.33419
upperneck 19.1538 11.9693 14.8077
head 5.49534 7.05735 4.72415
rclavicle -6.10269e-014 -2.94201e-014
rhumerus -29.6153 -25.4634 13.8422
rradius 26.9198
rwrist -53.7753
rhand -44.0389 -344.147
rfingers 7.12502
rthumb -16.8586 -13.4347
lclavicle -6.10269e-014 -2.94201e-014
lhumerus -37.5369 55.0617 -27.2988
lradius 24.8531
lwrist -10.6732
lhand 0.194186 65.8193
lfingers 7.12502
lthumb 25.7764 985.907
rfemur -29.6185 24.1033 10.1852
rtibia 23.5424
rfoot -15.8784 -23.4754
rtoes 7.57887
lfemur -1.84401 -7.46384 -26.6763
ltibia 25.9629
lfoot -17.6659 23.9515
ltoes -11.6946
2447
root 7.47999 16.2071 -3.77563 5.02349 -48.233 -1.40225
lowerback -3.5767 0.233553 -0.241611
upperback -9.90755 0.233451 2.14351
thorax -8.41061 0.146142 2.40221
lowerneck -2.45432 10.9918 3.53478
upperneck 19.5615 12.0119 15.0105
head 5.59834 7.11698 4.77399
rclavicle -4.90998e-014 3.97569e-016
rhumerus -28.0155 -26.1325 11.5994
rradius 27.1329
rwrist -54.8204
rhand -43.6544 -343.855
rfingers 7.12502
rthumb -16.4885 -13.1741
lclavicle -4.90998e-014 3.97569e-016
lhumerus -34.353 54.089 -22.9834
lradius 25.0942
lwrist -9.42158
lhand 0.581547 65.8534
lfingers 7.12502
lthumb 26.1473 985.927
rfemur -29.357 23.9361 10.1126
rtibia 24.0112
rfoot -15.9433 -23.1645
rtoes 7.24763
lfemur -0.986432 -7.3864 -27.1717
ltibia 25.358
lfoot -17.4366 24.1376
ltoes -11.4023
